<mxfile host="app.diagrams.net" modified="2024-04-23T10:08:01.552Z" agent="Mozilla/5.0 (X11; Ubuntu; Linux x86_64; rv:125.0) Gecko/20100101 Firefox/125.0" etag="DIuhfTUv1kHvPFum8rzJ" version="24.2.5" type="device">
  <diagram name="Page-1" id="c7558073-3199-34d8-9f00-42111426c3f3">
    <mxGraphModel dx="1605" dy="879" grid="1" gridSize="10" guides="1" tooltips="1" connect="1" arrows="1" fold="1" page="1" pageScale="1" pageWidth="826" pageHeight="1169" background="none" math="0" shadow="0">
      <root>
        <mxCell id="0" />
        <mxCell id="1" parent="0" />
        <mxCell id="gyx-7LU9tPyvyTFu05AL-14" value="Directly controls the different actors and sensors" style="whiteSpace=wrap;html=1;glass=0;strokeColor=none;fillColor=#f5c211;fontColor=#F2F2F2;textShadow=1;fontSize=15;align=center;spacingRight=20;spacingLeft=14;" vertex="1" parent="1">
          <mxGeometry x="270" y="620" width="290" height="60" as="geometry" />
        </mxCell>
        <mxCell id="gyx-7LU9tPyvyTFu05AL-12" value="Provides a simple interface to the stm32 chip with some utility methods" style="whiteSpace=wrap;html=1;glass=0;strokeColor=none;fillColor=#e66100;fontColor=#F2F2F2;textShadow=1;fontSize=15;align=center;spacingRight=20;spacingLeft=14;" vertex="1" parent="1">
          <mxGeometry x="268" y="420" width="290" height="60" as="geometry" />
        </mxCell>
        <mxCell id="gyx-7LU9tPyvyTFu05AL-11" value="Fast C++ implementation abstracting the different robotic backends" style="whiteSpace=wrap;html=1;glass=0;strokeColor=none;fillColor=#A6313C;fontColor=#F2F2F2;textShadow=1;fontSize=15;align=center;spacingRight=20;spacingLeft=14;" vertex="1" parent="1">
          <mxGeometry x="270" y="220" width="290" height="60" as="geometry" />
        </mxCell>
        <mxCell id="gyx-7LU9tPyvyTFu05AL-10" value="Generated by pybind11 and the native wrapper" style="whiteSpace=wrap;html=1;glass=0;strokeColor=none;fillColor=#A6313C;fontColor=#F2F2F2;textShadow=1;fontSize=15;align=center;spacingRight=20;spacingLeft=14;" vertex="1" parent="1">
          <mxGeometry x="270" y="20" width="290" height="60" as="geometry" />
        </mxCell>
        <mxCell id="4zs3pQgXploGkWZIMph6-103" value="LibWallaby" style="rounded=1;whiteSpace=wrap;html=1;fillColor=#F2762E;strokeColor=none;shadow=1;textShadow=1;fontSize=28;fontColor=#F2F2F2;fontStyle=1" parent="1" vertex="1">
          <mxGeometry x="10" y="410" width="270" height="80" as="geometry" />
        </mxCell>
        <mxCell id="4zs3pQgXploGkWZIMph6-112" value="Python LibStp Binding" style="rounded=1;whiteSpace=wrap;html=1;strokeColor=none;fillColor=#BF3945;shadow=1;textShadow=1;fontColor=#F2F2F2;fontStyle=1;fontSize=26;" parent="1" vertex="1">
          <mxGeometry x="10" y="10" width="270" height="80" as="geometry" />
        </mxCell>
        <mxCell id="4zs3pQgXploGkWZIMph6-120" value="Native LibStp" style="rounded=1;whiteSpace=wrap;html=1;strokeColor=none;fillColor=#BF3945;shadow=1;textShadow=1;fontColor=#F2F2F2;fontStyle=1;fontSize=26;" parent="1" vertex="1">
          <mxGeometry x="10" y="210" width="270" height="80" as="geometry" />
        </mxCell>
        <mxCell id="4zs3pQgXploGkWZIMph6-121" value="" style="endArrow=classic;html=1;rounded=1;entryX=0.5;entryY=1;entryDx=0;entryDy=0;exitX=0.5;exitY=0;exitDx=0;exitDy=0;curved=0;strokeWidth=7;strokeColor=#F2F2F2;shadow=1;textShadow=1;flowAnimation=1;endFill=1;jumpStyle=none;startArrow=classic;startFill=1;" parent="1" source="gyx-7LU9tPyvyTFu05AL-1" target="4zs3pQgXploGkWZIMph6-103" edge="1">
          <mxGeometry width="50" height="50" relative="1" as="geometry">
            <mxPoint x="-330" y="720" as="sourcePoint" />
            <mxPoint x="-118.5" y="720" as="targetPoint" />
          </mxGeometry>
        </mxCell>
        <mxCell id="gyx-7LU9tPyvyTFu05AL-1" value="STM32 Firmware" style="rounded=1;whiteSpace=wrap;html=1;fillColor=#f6d32d;strokeColor=none;shadow=1;textShadow=1;fontSize=28;fontColor=#F2F2F2;fontStyle=1" vertex="1" parent="1">
          <mxGeometry x="10" y="610" width="270" height="80" as="geometry" />
        </mxCell>
        <mxCell id="gyx-7LU9tPyvyTFu05AL-3" value="" style="endArrow=classic;html=1;rounded=1;entryX=0.5;entryY=1;entryDx=0;entryDy=0;exitX=0.5;exitY=0;exitDx=0;exitDy=0;curved=0;strokeWidth=7;strokeColor=#F2F2F2;shadow=1;textShadow=1;flowAnimation=1;endFill=1;jumpStyle=none;startArrow=classic;startFill=1;" edge="1" parent="1" source="4zs3pQgXploGkWZIMph6-103" target="4zs3pQgXploGkWZIMph6-120">
          <mxGeometry width="50" height="50" relative="1" as="geometry">
            <mxPoint x="105" y="610" as="sourcePoint" />
            <mxPoint x="105" y="560" as="targetPoint" />
          </mxGeometry>
        </mxCell>
        <mxCell id="gyx-7LU9tPyvyTFu05AL-5" value="" style="endArrow=classic;html=1;rounded=1;entryX=0.5;entryY=0;entryDx=0;entryDy=0;exitX=0.5;exitY=1;exitDx=0;exitDy=0;curved=0;strokeWidth=7;strokeColor=#F2F2F2;shadow=1;textShadow=1;flowAnimation=1;endFill=1;jumpStyle=none;startArrow=classic;startFill=1;" edge="1" parent="1" source="4zs3pQgXploGkWZIMph6-112" target="4zs3pQgXploGkWZIMph6-120">
          <mxGeometry width="50" height="50" relative="1" as="geometry">
            <mxPoint x="103" y="410" as="sourcePoint" />
            <mxPoint x="103" y="280" as="targetPoint" />
          </mxGeometry>
        </mxCell>
      </root>
    </mxGraphModel>
  </diagram>
</mxfile>
